<svg xmlns="http://www.w3.org/2000/svg" viewBox="0 0 128 128"><defs>
<radialGradient id="g"><stop offset="0" stop-color="#fff"/><stop offset=".18" stop-color="currentColor"/><stop offset=".55" stop-color="currentColor" stop-opacity=".45"/><stop offset="1" stop-color="#00101c" stop-opacity="0"/></radialGradient>
<linearGradient id="m" x1="0" y1="0" x2="1" y2="1"><stop stop-color="#9bb1c4"/><stop offset=".18" stop-color="#344b60"/><stop offset=".55" stop-color="#0a1828"/><stop offset="1" stop-color="#01050b"/></linearGradient>
<filter id="glow"><feGaussianBlur stdDeviation="3" result="b"/><feMerge><feMergeNode in="b"/><feMergeNode in="SourceGraphic"/></feMerge></filter>
</defs><g color="#ff5f7d" filter="url(#glow)"><ellipse cx="64" cy="72" rx="49" ry="17" fill="#00040a" opacity=".7"/><path d="M64 8 91 22 112 52 102 91 78 111 50 111 26 91 16 52 37 22Z" fill="url(#m)" stroke="currentColor" stroke-width="3"/><path d="M22 51 43 39 64 46 85 39 106 51M29 77 51 67 64 74 77 67 99 77" fill="none" stroke="#d7e6ef" stroke-opacity=".25" stroke-width="3"/><path d="M64 10 64 108" stroke="currentColor" stroke-opacity=".28" stroke-width="2"/><circle cx="64" cy="62" r="20" fill="url(#g)"/><circle cx="64" cy="62" r="8" fill="#fff"/><ellipse cx="64" cy="62" rx="54" ry="18" fill="none" stroke="currentColor" stroke-opacity=".38" stroke-width="2" transform="rotate(-16 64 62)"/><ellipse cx="64" cy="62" rx="47" ry="14" fill="none" stroke="#a27cff" stroke-opacity=".28" stroke-width="2" transform="rotate(25 64 62)"/></g></svg>