<svg xmlns="http://www.w3.org/2000/svg" width="128" height="128" viewBox="0 0 128 128">
<defs>
<linearGradient id="bodyTop" x1="0" y1="0" x2=".7" y2="1"><stop offset="0" stop-color="#173a5c"/><stop offset=".42" stop-color="#0b2037"/><stop offset="1" stop-color="#030914"/></linearGradient>
<linearGradient id="bodySide" x1="0" y1="0" x2="1" y2="1"><stop offset="0" stop-color="#1b466d"/><stop offset=".48" stop-color="#09213a"/><stop offset="1" stop-color="#020711"/></linearGradient>
<mask id="coreCut"><rect width="128" height="128" fill="white"/><circle cx="64" cy="64" r="29" fill="black"/></mask>
</defs>
<g mask="url(#coreCut)">
<path d="M64 18 90 29 104 51 99 78 82 100 64 108 43 99 26 78 23 52 38 29Z" fill="url(#bodyTop)" stroke="#55cfff" stroke-opacity=".62" stroke-width="2"/>
<path d="M64 18 90 29 80 52 64 64 47 51 38 29Z" fill="#123653"/>
<path d="M38 29 47 51 27 75 23 52Z" fill="url(#bodySide)"/>
<path d="M90 29 80 52 101 77 104 51Z" fill="#0a2945"/>
<path d="M27 75 47 51 64 64 43 99Z" fill="#0b2742"/>
<path d="M101 77 80 52 64 64 82 100Z" fill="#071b31"/>
<path d="M43 99 64 64 82 100 64 108Z" fill="#061522"/>
<path d="M47 51 64 64 80 52M27 75 64 64 101 77M43 99 64 64 82 100" fill="none" stroke="#55cfff" stroke-opacity=".34" stroke-width="1.3"/>
</g>
<path d="M64 18 90 29 104 51 99 78 82 100 64 108 43 99 26 78 23 52 38 29Z" fill="none" stroke="#8ef0ff" stroke-opacity=".72" stroke-width="1.5"/>
</svg>